<svg width="69" height="60" viewBox="0 0 69 60" fill="none" xmlns="http://www.w3.org/2000/svg">
<g clip-path="url(#clip0_1_96)">
<path d="M18.05 5.02283L13.025 12.5228H5.52499V27.5228H13.025L18.05 35.0228H20.525V5.02283H18.05ZM24.275 8.77283V12.5228C24.9125 12.5228 25.55 12.5978 26.15 12.7478C29.375 13.5728 31.775 16.4978 31.775 20.0228C31.7815 21.0095 31.5919 21.9877 31.2173 22.9006C30.8427 23.8135 30.2905 24.6428 29.5927 25.3406C28.895 26.0383 28.0656 26.5905 27.1528 26.9651C26.2399 27.3397 25.2617 27.5293 24.275 27.5228V31.2728C25.2125 31.2728 26.075 31.1228 26.975 30.9353H27.0875C31.9625 29.6978 35.525 25.2728 35.525 20.0228C35.525 14.7728 31.9625 10.3478 27.0875 9.11033C26.225 8.88533 25.25 8.77283 24.275 8.77283ZM24.275 16.2728V23.7728C24.6125 23.7728 24.95 23.7353 25.2125 23.6603C26.825 23.2478 28.025 21.7478 28.025 20.0228C28.0265 19.53 27.9305 19.0417 27.7426 18.586C27.5546 18.1304 27.2785 17.7164 26.93 17.3679C26.5814 17.0193 26.1675 16.7432 25.7118 16.5553C25.2562 16.3673 24.7679 16.2713 24.275 16.2728Z" fill="#007AB3"/>
</g>
<defs>
<clipPath id="clip0_1_96">
<rect width="30" height="30" fill="white" transform="translate(5.52499 5.02283)"/>
</clipPath>
</defs>
</svg>
