<svg width="53" height="43" viewBox="0 0 53 43" fill="none" xmlns="http://www.w3.org/2000/svg">
<g clip-path="url(#clip0_1_208)">
<g clip-path="url(#clip1_1_208)">
<g clip-path="url(#clip2_1_208)">
<path d="M23.653 16.1429L28.888 21.8229L23.653 27.5039H26.271L31.505 21.8239L26.271 16.1429H23.653V16.1429ZM17.109 16.1429L11.875 21.8229L17.109 27.5039H19.727L14.492 21.8239L19.727 16.1429H17.109V16.1429ZM21.691 6.42285C13.407 6.42285 6.68997 13.1379 6.68997 21.4239C6.68997 29.7079 13.407 36.4229 21.691 36.4229C29.975 36.4229 36.69 29.7079 36.69 21.4239C36.69 13.1379 29.975 6.42285 21.691 6.42285Z" fill="#212B36"/>
<mask id="mask0_1_208" style="mask-type:luminance" maskUnits="userSpaceOnUse" x="6" y="6" width="31" height="31">
<path d="M23.653 16.1429L28.888 21.8229L23.653 27.5039H26.271L31.505 21.8239L26.271 16.1429H23.653V16.1429ZM17.109 16.1429L11.875 21.8229L17.109 27.5039H19.727L14.492 21.8239L19.727 16.1429H17.109V16.1429ZM21.691 6.42285C13.407 6.42285 6.68997 13.1379 6.68997 21.4239C6.68997 29.7079 13.407 36.4229 21.691 36.4229C29.975 36.4229 36.69 29.7079 36.69 21.4239C36.69 13.1379 29.975 6.42285 21.691 6.42285Z" fill="white"/>
</mask>
<g mask="url(#mask0_1_208)">
<path d="M32.69 6.42285H10.69C8.48083 6.42285 6.68997 8.21371 6.68997 10.4229V32.4229C6.68997 34.632 8.48083 36.4229 10.69 36.4229H32.69C34.8991 36.4229 36.69 34.632 36.69 32.4229V10.4229C36.69 8.21371 34.8991 6.42285 32.69 6.42285Z" fill="#007AB3"/>
</g>
</g>
</g>
</g>
<defs>
<clipPath id="clip0_1_208">
<rect width="30" height="30" fill="white" transform="translate(6.68997 6.42285)"/>
</clipPath>
<clipPath id="clip1_1_208">
<rect width="30" height="30" fill="white" transform="translate(6.68997 6.42285)"/>
</clipPath>
<clipPath id="clip2_1_208">
<rect width="30" height="30" fill="white" transform="translate(6.68997 6.42285)"/>
</clipPath>
</defs>
</svg>
