<svg width="31" height="31" viewBox="0 0 31 31" fill="none" xmlns="http://www.w3.org/2000/svg">
<g clip-path="url(#clip0_1_570)">
<g clip-path="url(#clip1_1_570)">
<path d="M19.2296 15.8502H16.7906V24.5502H13.1736V15.8502H11.4536V12.7762H13.1736V10.7872C13.1736 9.36724 13.8486 7.13824 16.8226 7.13824L19.5016 7.15024V10.1332H17.5576C17.2376 10.1332 16.7906 10.2932 16.7906 10.9712V12.7802H19.5456L19.2296 15.8502ZM15.4976 0.323242C7.22963 0.323242 0.499634 7.05324 0.499634 15.3222C0.499634 23.5932 7.22963 30.3232 15.4976 30.3232C23.7696 30.3232 30.4996 23.5932 30.4996 15.3222C30.4996 7.05324 23.7696 0.323242 15.4976 0.323242Z" fill="#212B36"/>
<mask id="mask0_1_570" style="mask-type:luminance" maskUnits="userSpaceOnUse" x="0" y="0" width="31" height="31">
<path d="M19.2296 15.8502H16.7906V24.5502H13.1736V15.8502H11.4536V12.7762H13.1736V10.7872C13.1736 9.36724 13.8486 7.13824 16.8226 7.13824L19.5016 7.15024V10.1332H17.5576C17.2376 10.1332 16.7906 10.2932 16.7906 10.9712V12.7802H19.5456L19.2296 15.8502ZM15.4976 0.323242C7.22963 0.323242 0.499634 7.05324 0.499634 15.3222C0.499634 23.5932 7.22963 30.3232 15.4976 30.3232C23.7696 30.3232 30.4996 23.5932 30.4996 15.3222C30.4996 7.05324 23.7696 0.323242 15.4976 0.323242Z" fill="white"/>
</mask>
<g mask="url(#mask0_1_570)">
<path d="M26.4996 0.323242H4.49963C2.29049 0.323242 0.499634 2.1141 0.499634 4.32324V26.3232C0.499634 28.5324 2.29049 30.3232 4.49963 30.3232H26.4996C28.7088 30.3232 30.4996 28.5324 30.4996 26.3232V4.32324C30.4996 2.1141 28.7088 0.323242 26.4996 0.323242Z" fill="#007AB3"/>
</g>
</g>
</g>
<defs>
<clipPath id="clip0_1_570">
<rect width="30" height="30" fill="white" transform="translate(0.499634 0.323242)"/>
</clipPath>
<clipPath id="clip1_1_570">
<rect width="30" height="30" fill="white" transform="translate(0.499634 0.323242)"/>
</clipPath>
</defs>
</svg>
