<svg width="31" height="31" viewBox="0 0 31 31" fill="none" xmlns="http://www.w3.org/2000/svg">
<g clip-path="url(#clip0_1_622)">
<g clip-path="url(#clip1_1_622)">
<path d="M15.3227 0.323242C17.2727 0.323242 19.2035 0.707373 21.005 1.4537C22.8065 2.20002 24.4434 3.29391 25.8221 4.67291C27.2007 6.0519 28.2943 7.68898 29.0402 9.49065C29.7861 11.2923 30.1698 13.2233 30.1694 15.1732C30.169 18.11 29.2979 20.9806 27.666 23.4223C26.0342 25.8639 23.715 27.7668 21.0017 28.8903C18.2884 30.0138 15.3029 30.3075 12.4226 29.7343C9.5424 29.161 6.89683 27.7466 4.82049 25.6698C2.74415 23.5929 1.33028 20.9471 0.757675 18.0667C0.185072 15.1863 0.479454 12.2009 1.60359 9.48782C2.72773 6.77477 4.63114 4.45599 7.07312 2.82471C9.5151 1.19343 12.386 0.322913 15.3227 0.323242V0.323242ZM25.4394 20.1282C25.8027 18.5382 25.806 16.8066 25.806 15.1716C25.806 13.5382 25.806 11.8032 25.4427 10.2149C25.3249 9.67869 25.0434 9.19235 24.637 8.82327C24.2305 8.45418 23.7194 8.22061 23.1744 8.15491C20.5744 7.86491 17.9444 7.86324 15.3244 7.86491C12.7044 7.86324 10.0744 7.86491 7.47436 8.15491C6.92943 8.22046 6.41843 8.45401 6.01225 8.82315C5.60608 9.19229 5.32489 9.67871 5.20769 10.2149C4.84103 11.8032 4.83603 13.5366 4.83603 15.1716C4.83603 16.8066 4.83603 18.5382 5.20269 20.1282C5.45936 21.2416 6.36936 22.0649 7.46936 22.1866C10.0694 22.4766 12.701 22.4782 15.3194 22.4766C17.941 22.4782 20.571 22.4766 23.171 22.1866C23.7154 22.1202 24.2257 21.8865 24.6317 21.5179C25.0377 21.1492 25.3193 20.6637 25.4377 20.1282H25.4394ZM12.6144 18.4232V11.4899L19.2794 14.9682L12.6127 18.4232H12.6144Z" fill="#212B36"/>
<mask id="mask0_1_622" style="mask-type:luminance" maskUnits="userSpaceOnUse" x="0" y="0" width="31" height="31">
<path d="M15.3227 0.323242C17.2727 0.323242 19.2035 0.707373 21.005 1.4537C22.8065 2.20002 24.4434 3.29391 25.8221 4.67291C27.2007 6.0519 28.2943 7.68898 29.0402 9.49065C29.7861 11.2923 30.1698 13.2233 30.1694 15.1732C30.169 18.11 29.2979 20.9806 27.666 23.4223C26.0342 25.8639 23.715 27.7668 21.0017 28.8903C18.2884 30.0138 15.3029 30.3075 12.4226 29.7343C9.5424 29.161 6.89683 27.7466 4.82049 25.6698C2.74415 23.5929 1.33028 20.9471 0.757675 18.0667C0.185072 15.1863 0.479454 12.2009 1.60359 9.48782C2.72773 6.77477 4.63114 4.45599 7.07312 2.82471C9.5151 1.19343 12.386 0.322913 15.3227 0.323242V0.323242ZM25.4394 20.1282C25.8027 18.5382 25.806 16.8066 25.806 15.1716C25.806 13.5382 25.806 11.8032 25.4427 10.2149C25.3249 9.67869 25.0434 9.19235 24.637 8.82327C24.2305 8.45418 23.7194 8.22061 23.1744 8.15491C20.5744 7.86491 17.9444 7.86324 15.3244 7.86491C12.7044 7.86324 10.0744 7.86491 7.47436 8.15491C6.92943 8.22046 6.41843 8.45401 6.01225 8.82315C5.60608 9.19229 5.32489 9.67871 5.20769 10.2149C4.84103 11.8032 4.83603 13.5366 4.83603 15.1716C4.83603 16.8066 4.83603 18.5382 5.20269 20.1282C5.45936 21.2416 6.36936 22.0649 7.46936 22.1866C10.0694 22.4766 12.701 22.4782 15.3194 22.4766C17.941 22.4782 20.571 22.4766 23.171 22.1866C23.7154 22.1202 24.2257 21.8865 24.6317 21.5179C25.0377 21.1492 25.3193 20.6637 25.4377 20.1282H25.4394ZM12.6144 18.4232V11.4899L19.2794 14.9682L12.6127 18.4232H12.6144Z" fill="white"/>
</mask>
<g mask="url(#mask0_1_622)">
<path d="M43.806 0.323242H7.13935C3.45745 0.323242 0.472687 3.30801 0.472687 6.98991V43.6566C0.472687 47.3385 3.45745 50.3232 7.13935 50.3232H43.806C47.4879 50.3232 50.4727 47.3385 50.4727 43.6566V6.98991C50.4727 3.30801 47.4879 0.323242 43.806 0.323242Z" fill="#007AB3"/>
</g>
</g>
</g>
<defs>
<clipPath id="clip0_1_622">
<rect width="30" height="30" fill="white" transform="translate(0.472687 0.323242)"/>
</clipPath>
<clipPath id="clip1_1_622">
<rect width="30" height="30" fill="white" transform="translate(0.472687 0.323242)"/>
</clipPath>
</defs>
</svg>
