<svg width="31" height="31" viewBox="0 0 31 31" fill="none" xmlns="http://www.w3.org/2000/svg">
<g clip-path="url(#clip0_1_635)">
<g clip-path="url(#clip1_1_635)">
<path d="M15.4659 0.323242C19.4442 0.323242 23.2595 1.90359 26.0725 4.71664C28.8856 7.52969 30.4659 11.345 30.4659 15.3232C30.4659 19.3015 28.8856 23.1168 26.0725 25.9298C23.2595 28.7429 19.4442 30.3232 15.4659 30.3232C11.4877 30.3232 7.67239 28.7429 4.85934 25.9298C2.0463 23.1168 0.465942 19.3015 0.465942 15.3232C0.465942 11.345 2.0463 7.52969 4.85934 4.71664C7.67239 1.90359 11.4877 0.323242 15.4659 0.323242V0.323242ZM14.4993 6.47824V6.47658C12.4859 6.47658 12.0993 6.49158 11.1059 6.53658C10.0526 6.58491 9.48261 6.75991 9.10094 6.90824C8.63251 7.08186 8.20883 7.35804 7.86094 7.71658C7.50223 8.06432 7.22602 8.48804 7.05261 8.95658C6.90428 9.33824 6.72928 9.90824 6.68094 10.9616C6.63094 12.0982 6.61928 12.4382 6.61928 15.3199C6.61928 18.2032 6.62928 18.5432 6.68094 19.6816C6.72928 20.7332 6.90428 21.3049 7.05261 21.6849C7.24928 22.1882 7.48261 22.5466 7.86094 22.9249C8.23761 23.3032 8.59761 23.5366 9.10094 23.7316C9.48261 23.8799 10.0526 24.0566 11.1059 24.1049C12.2426 24.1549 12.5843 24.1666 15.4659 24.1666C18.3476 24.1666 18.6893 24.1566 19.8276 24.1049C20.8776 24.0549 21.4509 23.8816 21.8309 23.7332C22.3343 23.5366 22.6926 23.3032 23.0709 22.9249C23.4476 22.5482 23.6826 22.1899 23.8776 21.6849C24.0259 21.3049 24.2009 20.7349 24.2493 19.6832C24.3009 18.5449 24.3126 18.2032 24.3126 15.3232C24.3126 12.4432 24.3009 12.1016 24.2493 10.9632C24.2026 9.91158 24.0259 9.33991 23.8776 8.95991C23.7045 8.49163 23.4289 8.06797 23.0709 7.71991C22.7233 7.36103 22.2996 7.08478 21.8309 6.91158C21.4493 6.76491 20.8793 6.58824 19.8276 6.53991C18.6893 6.48991 18.3476 6.47824 15.4659 6.47824H14.4993V6.47824ZM21.2259 8.26991C21.396 8.26991 21.5644 8.3034 21.7215 8.36848C21.8786 8.43356 22.0214 8.52895 22.1416 8.64921C22.2619 8.76946 22.3573 8.91222 22.4224 9.06933C22.4874 9.22645 22.5209 9.39485 22.5209 9.56491C22.5209 9.73497 22.4874 9.90337 22.4224 10.0605C22.3573 10.2176 22.2619 10.3604 22.1416 10.4806C22.0214 10.6009 21.8786 10.6963 21.7215 10.7613C21.5644 10.8264 21.396 10.8599 21.2259 10.8599C20.8825 10.8599 20.5531 10.7235 20.3102 10.4806C20.0674 10.2378 19.9309 9.90836 19.9309 9.56491C19.9309 9.22145 20.0674 8.89206 20.3102 8.64921C20.5531 8.40635 20.8825 8.26991 21.2259 8.26991V8.26991ZM15.4659 9.78324C16.1937 9.78324 16.9143 9.92658 17.5866 10.2051C18.259 10.4836 18.8699 10.8918 19.3845 11.4064C19.8991 11.9209 20.3073 12.5319 20.5858 13.2042C20.8643 13.8766 21.0076 14.5972 21.0076 15.3249C21.0076 16.0527 20.8643 16.7733 20.5858 17.4456C20.3073 18.118 19.8991 18.7289 19.3845 19.2435C18.8699 19.758 18.259 20.1662 17.5866 20.4447C16.9143 20.7232 16.1937 20.8666 15.4659 20.8666C13.9962 20.8666 12.5867 20.2827 11.5474 19.2435C10.5081 18.2042 9.92428 16.7947 9.92428 15.3249C9.92428 13.8552 10.5081 12.4456 11.5474 11.4064C12.5867 10.3671 13.9962 9.78324 15.4659 9.78324V9.78324ZM15.4659 11.7282C14.5118 11.7282 13.5968 12.1073 12.9221 12.7819C12.2475 13.4566 11.8684 14.3716 11.8684 15.3257C11.8684 16.2799 12.2475 17.1949 12.9221 17.8696C13.5968 18.5442 14.5118 18.9232 15.4659 18.9232C16.4201 18.9232 17.3351 18.5442 18.0098 17.8696C18.6844 17.1949 19.0634 16.2799 19.0634 15.3257C19.0634 14.3716 18.6844 13.4566 18.0098 12.7819C17.3351 12.1073 16.4201 11.7282 15.4659 11.7282V11.7282Z" fill="#212B36"/>
<mask id="mask0_1_635" style="mask-type:luminance" maskUnits="userSpaceOnUse" x="0" y="0" width="31" height="31">
<path d="M15.4659 0.323242C19.4442 0.323242 23.2595 1.90359 26.0725 4.71664C28.8856 7.52969 30.4659 11.345 30.4659 15.3232C30.4659 19.3015 28.8856 23.1168 26.0725 25.9298C23.2595 28.7429 19.4442 30.3232 15.4659 30.3232C11.4877 30.3232 7.67239 28.7429 4.85934 25.9298C2.0463 23.1168 0.465942 19.3015 0.465942 15.3232C0.465942 11.345 2.0463 7.52969 4.85934 4.71664C7.67239 1.90359 11.4877 0.323242 15.4659 0.323242V0.323242ZM14.4993 6.47824V6.47658C12.4859 6.47658 12.0993 6.49158 11.1059 6.53658C10.0526 6.58491 9.48261 6.75991 9.10094 6.90824C8.63251 7.08186 8.20883 7.35804 7.86094 7.71658C7.50223 8.06432 7.22602 8.48804 7.05261 8.95658C6.90428 9.33824 6.72928 9.90824 6.68094 10.9616C6.63094 12.0982 6.61928 12.4382 6.61928 15.3199C6.61928 18.2032 6.62928 18.5432 6.68094 19.6816C6.72928 20.7332 6.90428 21.3049 7.05261 21.6849C7.24928 22.1882 7.48261 22.5466 7.86094 22.9249C8.23761 23.3032 8.59761 23.5366 9.10094 23.7316C9.48261 23.8799 10.0526 24.0566 11.1059 24.1049C12.2426 24.1549 12.5843 24.1666 15.4659 24.1666C18.3476 24.1666 18.6893 24.1566 19.8276 24.1049C20.8776 24.0549 21.4509 23.8816 21.8309 23.7332C22.3343 23.5366 22.6926 23.3032 23.0709 22.9249C23.4476 22.5482 23.6826 22.1899 23.8776 21.6849C24.0259 21.3049 24.2009 20.7349 24.2493 19.6832C24.3009 18.5449 24.3126 18.2032 24.3126 15.3232C24.3126 12.4432 24.3009 12.1016 24.2493 10.9632C24.2026 9.91158 24.0259 9.33991 23.8776 8.95991C23.7045 8.49163 23.4289 8.06797 23.0709 7.71991C22.7233 7.36103 22.2996 7.08478 21.8309 6.91158C21.4493 6.76491 20.8793 6.58824 19.8276 6.53991C18.6893 6.48991 18.3476 6.47824 15.4659 6.47824H14.4993V6.47824ZM21.2259 8.26991C21.396 8.26991 21.5644 8.3034 21.7215 8.36848C21.8786 8.43356 22.0214 8.52895 22.1416 8.64921C22.2619 8.76946 22.3573 8.91222 22.4224 9.06933C22.4874 9.22645 22.5209 9.39485 22.5209 9.56491C22.5209 9.73497 22.4874 9.90337 22.4224 10.0605C22.3573 10.2176 22.2619 10.3604 22.1416 10.4806C22.0214 10.6009 21.8786 10.6963 21.7215 10.7613C21.5644 10.8264 21.396 10.8599 21.2259 10.8599C20.8825 10.8599 20.5531 10.7235 20.3102 10.4806C20.0674 10.2378 19.9309 9.90836 19.9309 9.56491C19.9309 9.22145 20.0674 8.89206 20.3102 8.64921C20.5531 8.40635 20.8825 8.26991 21.2259 8.26991V8.26991ZM15.4659 9.78324C16.1937 9.78324 16.9143 9.92658 17.5866 10.2051C18.259 10.4836 18.8699 10.8918 19.3845 11.4064C19.8991 11.9209 20.3073 12.5319 20.5858 13.2042C20.8643 13.8766 21.0076 14.5972 21.0076 15.3249C21.0076 16.0527 20.8643 16.7733 20.5858 17.4456C20.3073 18.118 19.8991 18.7289 19.3845 19.2435C18.8699 19.758 18.259 20.1662 17.5866 20.4447C16.9143 20.7232 16.1937 20.8666 15.4659 20.8666C13.9962 20.8666 12.5867 20.2827 11.5474 19.2435C10.5081 18.2042 9.92428 16.7947 9.92428 15.3249C9.92428 13.8552 10.5081 12.4456 11.5474 11.4064C12.5867 10.3671 13.9962 9.78324 15.4659 9.78324V9.78324ZM15.4659 11.7282C14.5118 11.7282 13.5968 12.1073 12.9221 12.7819C12.2475 13.4566 11.8684 14.3716 11.8684 15.3257C11.8684 16.2799 12.2475 17.1949 12.9221 17.8696C13.5968 18.5442 14.5118 18.9232 15.4659 18.9232C16.4201 18.9232 17.3351 18.5442 18.0098 17.8696C18.6844 17.1949 19.0634 16.2799 19.0634 15.3257C19.0634 14.3716 18.6844 13.4566 18.0098 12.7819C17.3351 12.1073 16.4201 11.7282 15.4659 11.7282V11.7282Z" fill="white"/>
</mask>
<g mask="url(#mask0_1_635)">
<path d="M23.7993 0.323242H7.13261C3.45071 0.323242 0.465942 3.30801 0.465942 6.98991V23.6566C0.465942 27.3385 3.45071 30.3232 7.13261 30.3232H23.7993C27.4812 30.3232 30.4659 27.3385 30.4659 23.6566V6.98991C30.4659 3.30801 27.4812 0.323242 23.7993 0.323242Z" fill="#007AB3"/>
</g>
</g>
</g>
<defs>
<clipPath id="clip0_1_635">
<rect width="30" height="30" fill="white" transform="translate(0.465942 0.323242)"/>
</clipPath>
<clipPath id="clip1_1_635">
<rect width="30" height="30" fill="white" transform="translate(0.465942 0.323242)"/>
</clipPath>
</defs>
</svg>
