<svg width="31" height="31" viewBox="0 0 31 31" fill="none" xmlns="http://www.w3.org/2000/svg">
<g clip-path="url(#clip0_1_583)">
<g clip-path="url(#clip1_1_583)">
<path d="M22.1849 11.8912C22.1919 12.0382 22.1949 12.1882 22.1949 12.3392C22.1949 16.9002 18.7219 22.1592 12.3709 22.1592C10.4941 22.1628 8.65625 21.6246 7.07789 20.6092C7.98202 20.7191 8.89894 20.6495 9.77613 20.4044C10.6533 20.1594 11.4736 19.7437 12.1899 19.1812C11.4694 19.1671 10.7713 18.9282 10.1933 18.4979C9.61522 18.0676 9.18609 17.4674 8.96589 16.7812C9.48283 16.8819 10.016 16.8617 10.5239 16.7222C9.74252 16.5648 9.03968 16.1419 8.53461 15.5253C8.02954 14.9087 7.75335 14.1363 7.75289 13.3392C7.75289 13.3242 7.75289 13.3092 7.75689 13.2952C8.21889 13.5552 8.75389 13.7082 9.31989 13.7252C8.5893 13.237 8.07205 12.4889 7.87329 11.6329C7.67454 10.777 7.8092 9.87746 8.24989 9.11724C9.11652 10.1837 10.1977 11.056 11.4233 11.6776C12.6489 12.2992 13.9914 12.6561 15.3639 12.7252C15.3049 12.4671 15.2758 12.203 15.2769 11.9382C15.2766 11.2459 15.4844 10.5695 15.8734 9.99682C16.2625 9.42414 16.8147 8.98167 17.4584 8.72688C18.1022 8.47208 18.8076 8.41673 19.4832 8.56802C20.1588 8.71931 20.7733 9.07024 21.2469 9.57524C22.0215 9.42499 22.7642 9.14145 23.4419 8.73724C23.1842 9.53799 22.6439 10.2176 21.9219 10.6492C22.6065 10.5692 23.275 10.3861 23.9049 10.1062C23.4421 10.7987 22.8597 11.4031 22.1849 11.8912M15.4909 0.323242C7.22289 0.323242 0.492889 7.05324 0.492889 15.3222C0.492889 23.5932 7.22289 30.3232 15.4909 30.3232C23.7629 30.3232 30.4929 23.5932 30.4929 15.3222C30.4929 7.05224 23.7629 0.323242 15.4909 0.323242Z" fill="#212B36"/>
<mask id="mask0_1_583" style="mask-type:luminance" maskUnits="userSpaceOnUse" x="0" y="0" width="31" height="31">
<path d="M22.1849 11.8912C22.1919 12.0382 22.1949 12.1882 22.1949 12.3392C22.1949 16.9002 18.7219 22.1592 12.3709 22.1592C10.4941 22.1628 8.65625 21.6246 7.07789 20.6092C7.98202 20.7191 8.89894 20.6495 9.77613 20.4044C10.6533 20.1594 11.4736 19.7437 12.1899 19.1812C11.4694 19.1671 10.7713 18.9282 10.1933 18.4979C9.61522 18.0676 9.18609 17.4674 8.96589 16.7812C9.48283 16.8819 10.016 16.8617 10.5239 16.7222C9.74252 16.5648 9.03968 16.1419 8.53461 15.5253C8.02954 14.9087 7.75335 14.1363 7.75289 13.3392C7.75289 13.3242 7.75289 13.3092 7.75689 13.2952C8.21889 13.5552 8.75389 13.7082 9.31989 13.7252C8.5893 13.237 8.07205 12.4889 7.87329 11.6329C7.67454 10.777 7.8092 9.87746 8.24989 9.11724C9.11652 10.1837 10.1977 11.056 11.4233 11.6776C12.6489 12.2992 13.9914 12.6561 15.3639 12.7252C15.3049 12.4671 15.2758 12.203 15.2769 11.9382C15.2766 11.2459 15.4844 10.5695 15.8734 9.99682C16.2625 9.42414 16.8147 8.98167 17.4584 8.72688C18.1022 8.47208 18.8076 8.41673 19.4832 8.56802C20.1588 8.71931 20.7733 9.07024 21.2469 9.57524C22.0215 9.42499 22.7642 9.14145 23.4419 8.73724C23.1842 9.53799 22.6439 10.2176 21.9219 10.6492C22.6065 10.5692 23.275 10.3861 23.9049 10.1062C23.4421 10.7987 22.8597 11.4031 22.1849 11.8912M15.4909 0.323242C7.22289 0.323242 0.492889 7.05324 0.492889 15.3222C0.492889 23.5932 7.22289 30.3232 15.4909 30.3232C23.7629 30.3232 30.4929 23.5932 30.4929 15.3222C30.4929 7.05224 23.7629 0.323242 15.4909 0.323242Z" fill="white"/>
</mask>
<g mask="url(#mask0_1_583)">
<path d="M26.4929 0.323242H4.49289C2.28375 0.323242 0.492889 2.1141 0.492889 4.32324V26.3232C0.492889 28.5324 2.28375 30.3232 4.49289 30.3232H26.4929C28.702 30.3232 30.4929 28.5324 30.4929 26.3232V4.32324C30.4929 2.1141 28.702 0.323242 26.4929 0.323242Z" fill="#007AB3"/>
</g>
</g>
</g>
<defs>
<clipPath id="clip0_1_583">
<rect width="30" height="30" fill="white" transform="translate(0.492889 0.323242)"/>
</clipPath>
<clipPath id="clip1_1_583">
<rect width="30" height="30" fill="white" transform="translate(0.492889 0.323242)"/>
</clipPath>
</defs>
</svg>
