<svg width="52" height="43" viewBox="0 0 52 43" fill="none" xmlns="http://www.w3.org/2000/svg">
<g clip-path="url(#clip0_1_221)">
<g clip-path="url(#clip1_1_221)">
<g clip-path="url(#clip2_1_221)">
<path d="M21.291 6.42285C13.007 6.42285 6.28998 13.1379 6.28998 21.4239C6.28998 29.7079 13.007 36.4229 21.291 36.4229C29.575 36.4229 36.29 29.7079 36.29 21.4239C36.29 13.1379 29.575 6.42285 21.291 6.42285ZM28.077 13.9699C27.9349 13.7661 27.735 13.6096 27.503 13.5209C27.3504 13.4555 27.186 13.4221 27.02 13.4229H15.558C15.391 13.4229 15.231 13.4559 15.078 13.5209C14.8455 13.6093 14.6451 13.7657 14.503 13.9699C14.3628 14.168 14.2883 14.4051 14.29 14.6479V28.7459C14.29 28.9939 14.361 29.2199 14.503 29.4249C14.645 29.6289 14.837 29.7779 15.077 29.8729C15.231 29.9389 15.391 29.9709 15.558 29.9709C15.901 29.9709 16.204 29.8509 16.466 29.6109L21.29 24.9729L26.113 29.6099C26.3589 29.8397 26.6844 29.9651 27.021 29.9599C27.203 29.9599 27.364 29.9319 27.503 29.8729C27.743 29.7779 27.933 29.6289 28.077 29.4239C28.2172 29.2257 28.2917 28.9886 28.29 28.7459V14.6479C28.2917 14.4051 28.2172 14.168 28.077 13.9699M25.131 18.4909C25.0808 18.4393 25.0205 18.3986 24.954 18.3712C24.8874 18.3439 24.8159 18.3305 24.744 18.3319H22.381V15.9689C22.3822 15.8968 22.3686 15.8253 22.3411 15.7588C22.3135 15.6922 22.2727 15.632 22.221 15.5819C22.1709 15.5304 22.1108 15.4898 22.0444 15.4624C21.978 15.4351 21.9068 15.4216 21.835 15.4229H20.745C20.673 15.4215 20.6016 15.435 20.535 15.4623C20.4685 15.4896 20.4082 15.5303 20.358 15.5819C20.3065 15.6321 20.2658 15.6923 20.2384 15.7589C20.2111 15.8255 20.1977 15.8969 20.199 15.9689V18.3319H17.835C17.7632 18.3307 17.6919 18.3442 17.6256 18.3715C17.5592 18.3988 17.4991 18.4395 17.449 18.4909C17.3975 18.5411 17.3568 18.6013 17.3294 18.6679C17.3021 18.7345 17.2887 18.8059 17.29 18.8779V19.9679C17.29 20.1199 17.343 20.2479 17.449 20.3549C17.4991 20.4063 17.5591 20.4469 17.6255 20.4743C17.6919 20.5016 17.7632 20.5151 17.835 20.5139H20.199V22.8779C20.199 23.0289 20.252 23.1579 20.358 23.2639C20.464 23.3699 20.593 23.4239 20.745 23.4239H21.835C21.907 23.4249 21.9784 23.4112 22.045 23.3837C22.1115 23.3562 22.1717 23.3154 22.222 23.2639C22.2734 23.2138 22.3141 23.1537 22.3414 23.0873C22.3688 23.0209 22.3822 22.9496 22.381 22.8779V20.5129H24.744C24.896 20.5129 25.024 20.4599 25.131 20.3529C25.1824 20.303 25.223 20.243 25.2504 20.1768C25.2777 20.1106 25.2912 20.0395 25.29 19.9679V18.8769C25.2911 18.8048 25.2775 18.7334 25.25 18.6668C25.2225 18.6003 25.1816 18.54 25.13 18.4899" fill="#212B36"/>
<mask id="mask0_1_221" style="mask-type:luminance" maskUnits="userSpaceOnUse" x="6" y="6" width="31" height="31">
<path d="M21.291 6.42285C13.007 6.42285 6.28998 13.1379 6.28998 21.4239C6.28998 29.7079 13.007 36.4229 21.291 36.4229C29.575 36.4229 36.29 29.7079 36.29 21.4239C36.29 13.1379 29.575 6.42285 21.291 6.42285ZM28.077 13.9699C27.9349 13.7661 27.735 13.6096 27.503 13.5209C27.3504 13.4555 27.186 13.4221 27.02 13.4229H15.558C15.391 13.4229 15.231 13.4559 15.078 13.5209C14.8455 13.6093 14.6451 13.7657 14.503 13.9699C14.3628 14.168 14.2883 14.4051 14.29 14.6479V28.7459C14.29 28.9939 14.361 29.2199 14.503 29.4249C14.645 29.6289 14.837 29.7779 15.077 29.8729C15.231 29.9389 15.391 29.9709 15.558 29.9709C15.901 29.9709 16.204 29.8509 16.466 29.6109L21.29 24.9729L26.113 29.6099C26.3589 29.8397 26.6844 29.9651 27.021 29.9599C27.203 29.9599 27.364 29.9319 27.503 29.8729C27.743 29.7779 27.933 29.6289 28.077 29.4239C28.2172 29.2257 28.2917 28.9886 28.29 28.7459V14.6479C28.2917 14.4051 28.2172 14.168 28.077 13.9699M25.131 18.4909C25.0808 18.4393 25.0205 18.3986 24.954 18.3712C24.8874 18.3439 24.8159 18.3305 24.744 18.3319H22.381V15.9689C22.3822 15.8968 22.3686 15.8253 22.3411 15.7588C22.3135 15.6922 22.2727 15.632 22.221 15.5819C22.1709 15.5304 22.1108 15.4898 22.0444 15.4624C21.978 15.4351 21.9068 15.4216 21.835 15.4229H20.745C20.673 15.4215 20.6016 15.435 20.535 15.4623C20.4685 15.4896 20.4082 15.5303 20.358 15.5819C20.3065 15.6321 20.2658 15.6923 20.2384 15.7589C20.2111 15.8255 20.1977 15.8969 20.199 15.9689V18.3319H17.835C17.7632 18.3307 17.6919 18.3442 17.6256 18.3715C17.5592 18.3988 17.4991 18.4395 17.449 18.4909C17.3975 18.5411 17.3568 18.6013 17.3294 18.6679C17.3021 18.7345 17.2887 18.8059 17.29 18.8779V19.9679C17.29 20.1199 17.343 20.2479 17.449 20.3549C17.4991 20.4063 17.5591 20.4469 17.6255 20.4743C17.6919 20.5016 17.7632 20.5151 17.835 20.5139H20.199V22.8779C20.199 23.0289 20.252 23.1579 20.358 23.2639C20.464 23.3699 20.593 23.4239 20.745 23.4239H21.835C21.907 23.4249 21.9784 23.4112 22.045 23.3837C22.1115 23.3562 22.1717 23.3154 22.222 23.2639C22.2734 23.2138 22.3141 23.1537 22.3414 23.0873C22.3688 23.0209 22.3822 22.9496 22.381 22.8779V20.5129H24.744C24.896 20.5129 25.024 20.4599 25.131 20.3529C25.1824 20.303 25.223 20.243 25.2504 20.1768C25.2777 20.1106 25.2912 20.0395 25.29 19.9679V18.8769C25.2911 18.8048 25.2775 18.7334 25.25 18.6668C25.2225 18.6003 25.1816 18.54 25.13 18.4899" fill="white"/>
</mask>
<g mask="url(#mask0_1_221)">
<path d="M32.29 6.42285H10.29C8.08084 6.42285 6.28998 8.21371 6.28998 10.4229V32.4229C6.28998 34.632 8.08084 36.4229 10.29 36.4229H32.29C34.4991 36.4229 36.29 34.632 36.29 32.4229V10.4229C36.29 8.21371 34.4991 6.42285 32.29 6.42285Z" fill="#007AB3"/>
</g>
</g>
</g>
</g>
<defs>
<clipPath id="clip0_1_221">
<rect width="30" height="30" fill="white" transform="translate(6.28998 6.42285)"/>
</clipPath>
<clipPath id="clip1_1_221">
<rect width="30" height="30" fill="white" transform="translate(6.28998 6.42285)"/>
</clipPath>
<clipPath id="clip2_1_221">
<rect width="30" height="30" fill="white" transform="translate(6.28998 6.42285)"/>
</clipPath>
</defs>
</svg>
