<svg width="31" height="31" viewBox="0 0 31 31" fill="none" xmlns="http://www.w3.org/2000/svg">
<g clip-path="url(#clip0_1_609)">
<g clip-path="url(#clip1_1_609)">
<path d="M22.6944 20.1482V20.1582H8.48943V20.1566C7.23443 20.1366 6.22276 18.9516 6.22276 17.4916C6.22276 16.0199 7.25276 14.8249 8.52276 14.8249C8.78943 14.8249 9.0461 14.8816 9.2861 14.9799C9.71943 13.4399 10.9644 12.3232 12.4378 12.3232C13.0544 12.3232 13.6278 12.5232 14.1211 12.8616C14.8344 11.5166 16.1111 10.6182 17.5711 10.6182C19.7794 10.6182 21.5711 12.6732 21.6161 15.2232C21.8928 15.0799 22.1994 14.9999 22.5211 14.9999C23.7494 14.9999 24.7444 16.1532 24.7444 17.5782C24.7444 18.9349 23.8411 20.0449 22.6944 20.1482M15.4794 0.323242C11.5012 0.323242 7.68587 1.90359 4.87283 4.71664C2.05978 7.52969 0.479431 11.345 0.479431 15.3232C0.479431 19.3015 2.05978 23.1168 4.87283 25.9298C7.68587 28.7429 11.5012 30.3232 15.4794 30.3232C19.4577 30.3232 23.273 28.7429 26.086 25.9298C28.8991 23.1168 30.4794 19.3015 30.4794 15.3232C30.4794 11.345 28.8991 7.52969 26.086 4.71664C23.273 1.90359 19.4577 0.323242 15.4794 0.323242" fill="#212B36"/>
<mask id="mask0_1_609" style="mask-type:luminance" maskUnits="userSpaceOnUse" x="0" y="0" width="31" height="31">
<path d="M22.6944 20.1482V20.1582H8.48943V20.1566C7.23443 20.1366 6.22276 18.9516 6.22276 17.4916C6.22276 16.0199 7.25276 14.8249 8.52276 14.8249C8.78943 14.8249 9.0461 14.8816 9.2861 14.9799C9.71943 13.4399 10.9644 12.3232 12.4378 12.3232C13.0544 12.3232 13.6278 12.5232 14.1211 12.8616C14.8344 11.5166 16.1111 10.6182 17.5711 10.6182C19.7794 10.6182 21.5711 12.6732 21.6161 15.2232C21.8928 15.0799 22.1994 14.9999 22.5211 14.9999C23.7494 14.9999 24.7444 16.1532 24.7444 17.5782C24.7444 18.9349 23.8411 20.0449 22.6944 20.1482M15.4794 0.323242C11.5012 0.323242 7.68587 1.90359 4.87283 4.71664C2.05978 7.52969 0.479431 11.345 0.479431 15.3232C0.479431 19.3015 2.05978 23.1168 4.87283 25.9298C7.68587 28.7429 11.5012 30.3232 15.4794 30.3232C19.4577 30.3232 23.273 28.7429 26.086 25.9298C28.8991 23.1168 30.4794 19.3015 30.4794 15.3232C30.4794 11.345 28.8991 7.52969 26.086 4.71664C23.273 1.90359 19.4577 0.323242 15.4794 0.323242" fill="white"/>
</mask>
<g mask="url(#mask0_1_609)">
<path d="M23.8128 0.323242H7.1461C3.4642 0.323242 0.479431 3.30801 0.479431 6.98991V23.6566C0.479431 27.3385 3.4642 30.3232 7.1461 30.3232H23.8128C27.4947 30.3232 30.4794 27.3385 30.4794 23.6566V6.98991C30.4794 3.30801 27.4947 0.323242 23.8128 0.323242Z" fill="#007AB3"/>
</g>
</g>
</g>
<defs>
<clipPath id="clip0_1_609">
<rect width="30" height="30" fill="white" transform="translate(0.479431 0.323242)"/>
</clipPath>
<clipPath id="clip1_1_609">
<rect width="30" height="30" fill="white" transform="translate(0.479431 0.323242)"/>
</clipPath>
</defs>
</svg>
