<svg width="31" height="31" viewBox="0 0 31 31" fill="none" xmlns="http://www.w3.org/2000/svg">
<g clip-path="url(#clip0_1_596)">
<g clip-path="url(#clip1_1_596)">
<path d="M20.5561 22.4732C19.8601 22.8012 19.2281 23.0312 18.6621 23.1642C18.0608 23.2987 17.4463 23.3647 16.8301 23.3612C16.2318 23.3729 15.6362 23.2781 15.0711 23.0812C14.5352 22.9098 14.0374 22.6365 13.6051 22.2762C13.2011 21.9242 12.9211 21.5562 12.7651 21.1632C12.6091 20.7712 12.5281 20.2022 12.5281 19.4552V13.7352H10.3131V11.4252C10.9531 11.2182 11.6971 10.9212 12.1531 10.5312C12.6121 10.1412 12.9771 9.67524 13.2511 9.13024C13.5311 8.58724 13.7211 7.89424 13.8271 7.05324H16.1451V10.8232H19.9151V13.7352H16.1451V17.9182C16.1451 18.8622 16.1341 19.4112 16.2341 19.6762C16.3311 19.9462 16.5821 20.2222 16.8541 20.3812C17.2161 20.5972 17.6261 20.7062 18.0891 20.7062C18.9161 20.7062 19.7391 20.4382 20.5561 19.9012V22.4742V22.4732ZM15.4841 0.323242C7.21615 0.323242 0.486145 7.05324 0.486145 15.3232C0.486145 23.5932 7.21615 30.3232 15.4841 30.3232C23.7561 30.3232 30.4861 23.5932 30.4861 15.3232C30.4861 7.05324 23.7561 0.323242 15.4841 0.323242Z" fill="#212B36"/>
<mask id="mask0_1_596" style="mask-type:luminance" maskUnits="userSpaceOnUse" x="0" y="0" width="31" height="31">
<path d="M20.5561 22.4732C19.8601 22.8012 19.2281 23.0312 18.6621 23.1642C18.0608 23.2987 17.4463 23.3647 16.8301 23.3612C16.2318 23.3729 15.6362 23.2781 15.0711 23.0812C14.5352 22.9098 14.0374 22.6365 13.6051 22.2762C13.2011 21.9242 12.9211 21.5562 12.7651 21.1632C12.6091 20.7712 12.5281 20.2022 12.5281 19.4552V13.7352H10.3131V11.4252C10.9531 11.2182 11.6971 10.9212 12.1531 10.5312C12.6121 10.1412 12.9771 9.67524 13.2511 9.13024C13.5311 8.58724 13.7211 7.89424 13.8271 7.05324H16.1451V10.8232H19.9151V13.7352H16.1451V17.9182C16.1451 18.8622 16.1341 19.4112 16.2341 19.6762C16.3311 19.9462 16.5821 20.2222 16.8541 20.3812C17.2161 20.5972 17.6261 20.7062 18.0891 20.7062C18.9161 20.7062 19.7391 20.4382 20.5561 19.9012V22.4742V22.4732ZM15.4841 0.323242C7.21615 0.323242 0.486145 7.05324 0.486145 15.3232C0.486145 23.5932 7.21615 30.3232 15.4841 30.3232C23.7561 30.3232 30.4861 23.5932 30.4861 15.3232C30.4861 7.05324 23.7561 0.323242 15.4841 0.323242Z" fill="white"/>
</mask>
<g mask="url(#mask0_1_596)">
<path d="M26.4861 0.323242H4.48615C2.27701 0.323242 0.486145 2.1141 0.486145 4.32324V26.3232C0.486145 28.5324 2.27701 30.3232 4.48615 30.3232H26.4861C28.6953 30.3232 30.4861 28.5324 30.4861 26.3232V4.32324C30.4861 2.1141 28.6953 0.323242 26.4861 0.323242Z" fill="#007AB3"/>
</g>
</g>
</g>
<defs>
<clipPath id="clip0_1_596">
<rect width="30" height="30" fill="white" transform="translate(0.486145 0.323242)"/>
</clipPath>
<clipPath id="clip1_1_596">
<rect width="30" height="30" fill="white" transform="translate(0.486145 0.323242)"/>
</clipPath>
</defs>
</svg>
