<svg width="31" height="31" viewBox="0 0 31 31" fill="none" xmlns="http://www.w3.org/2000/svg">
<g clip-path="url(#clip0_1_648)">
<g clip-path="url(#clip1_1_648)">
<path d="M2.22394 16.2055C2.22429 19.0449 3.08058 21.8182 4.68106 24.1635C6.28154 26.5088 8.55185 28.3172 11.1957 29.3526C11.0722 28.2355 10.9628 26.522 11.2451 25.3008C11.501 24.1997 12.9004 18.2844 12.9004 18.2844C12.9004 18.2844 12.4786 17.4373 12.4786 16.1897C12.4786 14.2255 13.6151 12.7608 15.0339 12.7608C16.2357 12.7608 16.8181 13.6644 16.8181 14.7497C16.8181 15.9602 16.0486 17.7708 15.6498 19.4491C15.3163 20.8555 16.3557 22.0008 17.7392 22.0008C20.2486 22.0008 22.1775 19.3538 22.1775 15.5349C22.1775 12.1538 19.751 9.79083 16.2816 9.79083C12.2651 9.79083 9.90747 12.8049 9.90747 15.9179C9.90747 17.132 10.3733 18.4326 10.9575 19.1402C11.0722 19.2814 11.0898 19.4032 11.0563 19.5461C10.9504 19.9908 10.7104 20.9508 10.6628 21.1467C10.601 21.4044 10.4581 21.4591 10.1898 21.3355C8.42688 20.5149 7.3257 17.9349 7.3257 15.8667C7.3257 11.4126 10.5622 7.32201 16.6539 7.32201C21.551 7.32201 25.3575 10.8126 25.3575 15.475C25.3575 20.342 22.2869 24.2579 18.0322 24.2579C16.601 24.2579 15.2545 23.5132 14.7957 22.6361L13.9151 25.9908C13.5975 27.2173 12.7363 28.7544 12.161 29.6932C14.1021 30.2934 16.1499 30.4675 18.1645 30.2036C20.1791 29.9398 22.113 29.2442 23.8341 28.1644C25.5552 27.0846 27.023 25.646 28.1371 23.947C29.2513 22.2479 29.9855 20.3283 30.2898 18.3194C30.594 16.3105 30.461 14.2597 29.8999 12.3069C29.3388 10.3541 28.3628 8.54541 27.0386 7.00442C25.7144 5.46343 24.0732 4.22643 22.2271 3.37792C20.3809 2.5294 18.3734 2.08937 16.3416 2.08789C12.5974 2.08789 9.00647 3.57528 6.3589 6.22285C3.71133 8.87043 2.22394 12.4613 2.22394 16.2055V16.2055Z" fill="#212B36"/>
<mask id="mask0_1_648" style="mask-type:luminance" maskUnits="userSpaceOnUse" x="2" y="2" width="29" height="29">
<path d="M2.22394 16.2055C2.22429 19.0449 3.08058 21.8182 4.68106 24.1635C6.28154 26.5088 8.55185 28.3172 11.1957 29.3526C11.0722 28.2355 10.9628 26.522 11.2451 25.3008C11.501 24.1997 12.9004 18.2844 12.9004 18.2844C12.9004 18.2844 12.4786 17.4373 12.4786 16.1897C12.4786 14.2255 13.6151 12.7608 15.0339 12.7608C16.2357 12.7608 16.8181 13.6644 16.8181 14.7497C16.8181 15.9602 16.0486 17.7708 15.6498 19.4491C15.3163 20.8555 16.3557 22.0008 17.7392 22.0008C20.2486 22.0008 22.1775 19.3538 22.1775 15.5349C22.1775 12.1538 19.751 9.79083 16.2816 9.79083C12.2651 9.79083 9.90747 12.8049 9.90747 15.9179C9.90747 17.132 10.3733 18.4326 10.9575 19.1402C11.0722 19.2814 11.0898 19.4032 11.0563 19.5461C10.9504 19.9908 10.7104 20.9508 10.6628 21.1467C10.601 21.4044 10.4581 21.4591 10.1898 21.3355C8.42688 20.5149 7.3257 17.9349 7.3257 15.8667C7.3257 11.4126 10.5622 7.32201 16.6539 7.32201C21.551 7.32201 25.3575 10.8126 25.3575 15.475C25.3575 20.342 22.2869 24.2579 18.0322 24.2579C16.601 24.2579 15.2545 23.5132 14.7957 22.6361L13.9151 25.9908C13.5975 27.2173 12.7363 28.7544 12.161 29.6932C14.1021 30.2934 16.1499 30.4675 18.1645 30.2036C20.1791 29.9398 22.113 29.2442 23.8341 28.1644C25.5552 27.0846 27.023 25.646 28.1371 23.947C29.2513 22.2479 29.9855 20.3283 30.2898 18.3194C30.594 16.3105 30.461 14.2597 29.8999 12.3069C29.3388 10.3541 28.3628 8.54541 27.0386 7.00442C25.7144 5.46343 24.0732 4.22643 22.2271 3.37792C20.3809 2.5294 18.3734 2.08937 16.3416 2.08789C12.5974 2.08789 9.00647 3.57528 6.3589 6.22285C3.71133 8.87043 2.22394 12.4613 2.22394 16.2055V16.2055Z" fill="white"/>
</mask>
<g mask="url(#mask0_1_648)">
<path d="M46.3416 0.323242H7.51805C3.61957 0.323242 0.459229 3.48358 0.459229 7.38207V46.2056C0.459229 50.1041 3.61957 53.2644 7.51805 53.2644H46.3416C50.2401 53.2644 53.4004 50.1041 53.4004 46.2056V7.38207C53.4004 3.48358 50.2401 0.323242 46.3416 0.323242Z" fill="#007AB3"/>
</g>
</g>
</g>
<defs>
<clipPath id="clip0_1_648">
<rect width="30" height="30" fill="white" transform="translate(0.459229 0.323242)"/>
</clipPath>
<clipPath id="clip1_1_648">
<rect width="30" height="30" fill="white" transform="translate(0.459229 0.323242)"/>
</clipPath>
</defs>
</svg>
