<svg width="43" height="31" viewBox="0 0 43 31" fill="none" xmlns="http://www.w3.org/2000/svg">
<g clip-path="url(#clip0_1_195)">
<g clip-path="url(#clip1_1_195)">
<g clip-path="url(#clip2_1_195)">
<path d="M21.091 0.422852C12.807 0.422852 6.08997 7.13785 6.08997 15.4239C6.08997 23.7079 12.807 30.4229 21.091 30.4229C29.375 30.4229 36.09 23.7079 36.09 15.4239C36.09 7.13785 29.375 0.422852 21.091 0.422852ZM27.044 14.1979C26.9094 14.198 26.776 14.1716 26.6516 14.1202C26.5272 14.0688 26.4142 13.9934 26.3189 13.8983C26.2236 13.8033 26.148 13.6903 26.0964 13.566C26.0447 13.4417 26.0181 13.3085 26.018 13.1739C26.0178 13.0392 26.0442 12.9059 26.0956 12.7815C26.147 12.6571 26.2224 12.544 26.3175 12.4488C26.4126 12.3535 26.5255 12.2779 26.6498 12.2263C26.7741 12.1746 26.9074 12.148 27.042 12.1479C27.1766 12.1477 27.3099 12.1741 27.4343 12.2255C27.5587 12.2769 27.6718 12.3523 27.767 12.4474C27.8623 12.5424 27.9379 12.6554 27.9896 12.7797C28.0412 12.904 28.0678 13.0372 28.068 13.1719C28.0681 13.3065 28.0417 13.4398 27.9903 13.5642C27.9389 13.6886 27.8635 13.8017 27.7685 13.8969C27.6734 13.9922 27.5604 14.0678 27.4361 14.1194C27.3118 14.1711 27.1786 14.1977 27.044 14.1979ZM16.789 22.4029H24.993V15.2249H16.789V22.4029V22.4029ZM28.069 11.1229H13.713C13.147 11.1229 12.687 11.5829 12.687 12.1489V17.2759C12.687 17.8429 13.147 18.3009 13.713 18.3009H15.763V22.4029C15.763 22.9699 16.223 23.4289 16.789 23.4289H24.993C25.56 23.4289 26.018 22.9689 26.018 22.4029V18.3009H28.069C28.636 18.3009 29.095 17.8429 29.095 17.2759V12.1489C29.095 11.5829 28.636 11.1229 28.069 11.1229V11.1229ZM16.79 8.04585H24.994V10.0959H26.019V8.04585C26.019 7.47985 25.56 7.01985 24.994 7.01985H16.79C16.224 7.01985 15.765 7.47985 15.765 8.04585V10.0959H16.79V8.04585ZM17.816 17.2749H21.917V16.2489H17.816V17.2749ZM17.816 19.3249H23.968V18.2999H17.816V19.3259V19.3249ZM17.816 21.3769H23.968V20.3509H17.816V21.3769Z" fill="#212B36"/>
<mask id="mask0_1_195" style="mask-type:luminance" maskUnits="userSpaceOnUse" x="6" y="0" width="31" height="31">
<path d="M21.091 0.422852C12.807 0.422852 6.08997 7.13785 6.08997 15.4239C6.08997 23.7079 12.807 30.4229 21.091 30.4229C29.375 30.4229 36.09 23.7079 36.09 15.4239C36.09 7.13785 29.375 0.422852 21.091 0.422852ZM27.044 14.1979C26.9094 14.198 26.776 14.1716 26.6516 14.1202C26.5272 14.0688 26.4142 13.9934 26.3189 13.8983C26.2236 13.8033 26.148 13.6903 26.0964 13.566C26.0447 13.4417 26.0181 13.3085 26.018 13.1739C26.0178 13.0392 26.0442 12.9059 26.0956 12.7815C26.147 12.6571 26.2224 12.544 26.3175 12.4488C26.4126 12.3535 26.5255 12.2779 26.6498 12.2263C26.7741 12.1746 26.9074 12.148 27.042 12.1479C27.1766 12.1477 27.3099 12.1741 27.4343 12.2255C27.5587 12.2769 27.6718 12.3523 27.767 12.4474C27.8623 12.5424 27.9379 12.6554 27.9896 12.7797C28.0412 12.904 28.0678 13.0372 28.068 13.1719C28.0681 13.3065 28.0417 13.4398 27.9903 13.5642C27.9389 13.6886 27.8635 13.8017 27.7685 13.8969C27.6734 13.9922 27.5604 14.0678 27.4361 14.1194C27.3118 14.1711 27.1786 14.1977 27.044 14.1979ZM16.789 22.4029H24.993V15.2249H16.789V22.4029V22.4029ZM28.069 11.1229H13.713C13.147 11.1229 12.687 11.5829 12.687 12.1489V17.2759C12.687 17.8429 13.147 18.3009 13.713 18.3009H15.763V22.4029C15.763 22.9699 16.223 23.4289 16.789 23.4289H24.993C25.56 23.4289 26.018 22.9689 26.018 22.4029V18.3009H28.069C28.636 18.3009 29.095 17.8429 29.095 17.2759V12.1489C29.095 11.5829 28.636 11.1229 28.069 11.1229V11.1229ZM16.79 8.04585H24.994V10.0959H26.019V8.04585C26.019 7.47985 25.56 7.01985 24.994 7.01985H16.79C16.224 7.01985 15.765 7.47985 15.765 8.04585V10.0959H16.79V8.04585ZM17.816 17.2749H21.917V16.2489H17.816V17.2749ZM17.816 19.3249H23.968V18.2999H17.816V19.3259V19.3249ZM17.816 21.3769H23.968V20.3509H17.816V21.3769Z" fill="white"/>
</mask>
<g mask="url(#mask0_1_195)">
<path d="M32.09 0.422852H10.09C7.88083 0.422852 6.08997 2.21371 6.08997 4.42285V26.4229C6.08997 28.632 7.88083 30.4229 10.09 30.4229H32.09C34.2991 30.4229 36.09 28.632 36.09 26.4229V4.42285C36.09 2.21371 34.2991 0.422852 32.09 0.422852Z" fill="#007AB3"/>
</g>
</g>
</g>
</g>
<defs>
<clipPath id="clip0_1_195">
<rect width="30" height="30" fill="white" transform="translate(6.08997 0.422852)"/>
</clipPath>
<clipPath id="clip1_1_195">
<rect width="30" height="30" fill="white" transform="translate(6.08997 0.422852)"/>
</clipPath>
<clipPath id="clip2_1_195">
<rect width="30" height="30" fill="white" transform="translate(6.08997 0.422852)"/>
</clipPath>
</defs>
</svg>
