<svg width="43" height="31" viewBox="0 0 43 31" fill="none" xmlns="http://www.w3.org/2000/svg">
<g clip-path="url(#clip0_1_181)">
<g clip-path="url(#clip1_1_181)">
<g clip-path="url(#clip2_1_181)">
<path d="M26.56 22.5729C25.864 22.9009 25.232 23.1309 24.666 23.2639C24.0647 23.3983 23.4501 23.4643 22.834 23.4609C22.2357 23.4726 21.6401 23.3777 21.075 23.1809C20.5391 23.0094 20.0413 22.7361 19.609 22.3759C19.205 22.0239 18.925 21.6559 18.769 21.2629C18.613 20.8709 18.532 20.3019 18.532 19.5549V13.8349H16.317V11.5249C16.957 11.3179 17.701 11.0209 18.157 10.6309C18.616 10.2409 18.981 9.77485 19.255 9.22985C19.535 8.68685 19.725 7.99385 19.831 7.15285H22.149V10.9229H25.919V13.8349H22.149V18.0179C22.149 18.9619 22.138 19.5109 22.238 19.7759C22.335 20.0459 22.586 20.3219 22.858 20.4809C23.232 20.7006 23.6593 20.8131 24.093 20.8059C24.92 20.8059 25.743 20.5379 26.56 20.0009V22.5739V22.5729ZM21.488 0.422852C13.22 0.422852 6.48999 7.15285 6.48999 15.4229C6.48999 23.6929 13.22 30.4229 21.488 30.4229C29.76 30.4229 36.49 23.6929 36.49 15.4229C36.49 7.15285 29.76 0.422852 21.488 0.422852Z" fill="#212B36"/>
<mask id="mask0_1_181" style="mask-type:luminance" maskUnits="userSpaceOnUse" x="6" y="0" width="31" height="31">
<path d="M26.56 22.5729C25.864 22.9009 25.232 23.1309 24.666 23.2639C24.0647 23.3983 23.4501 23.4643 22.834 23.4609C22.2357 23.4726 21.6401 23.3777 21.075 23.1809C20.5391 23.0094 20.0413 22.7361 19.609 22.3759C19.205 22.0239 18.925 21.6559 18.769 21.2629C18.613 20.8709 18.532 20.3019 18.532 19.5549V13.8349H16.317V11.5249C16.957 11.3179 17.701 11.0209 18.157 10.6309C18.616 10.2409 18.981 9.77485 19.255 9.22985C19.535 8.68685 19.725 7.99385 19.831 7.15285H22.149V10.9229H25.919V13.8349H22.149V18.0179C22.149 18.9619 22.138 19.5109 22.238 19.7759C22.335 20.0459 22.586 20.3219 22.858 20.4809C23.232 20.7006 23.6593 20.8131 24.093 20.8059C24.92 20.8059 25.743 20.5379 26.56 20.0009V22.5739V22.5729ZM21.488 0.422852C13.22 0.422852 6.48999 7.15285 6.48999 15.4229C6.48999 23.6929 13.22 30.4229 21.488 30.4229C29.76 30.4229 36.49 23.6929 36.49 15.4229C36.49 7.15285 29.76 0.422852 21.488 0.422852Z" fill="white"/>
</mask>
<g mask="url(#mask0_1_181)">
<path d="M32.49 0.422852H10.49C8.28085 0.422852 6.48999 2.21371 6.48999 4.42285V26.4229C6.48999 28.632 8.28085 30.4229 10.49 30.4229H32.49C34.6991 30.4229 36.49 28.632 36.49 26.4229V4.42285C36.49 2.21371 34.6991 0.422852 32.49 0.422852Z" fill="#007AB3"/>
</g>
</g>
</g>
</g>
<defs>
<clipPath id="clip0_1_181">
<rect width="30" height="30" fill="white" transform="translate(6.48999 0.422852)"/>
</clipPath>
<clipPath id="clip1_1_181">
<rect width="30" height="30" fill="white" transform="translate(6.48999 0.422852)"/>
</clipPath>
<clipPath id="clip2_1_181">
<rect width="30" height="30" fill="white" transform="translate(6.48999 0.422852)"/>
</clipPath>
</defs>
</svg>
