<svg width="43" height="31" viewBox="0 0 43 31" fill="none" xmlns="http://www.w3.org/2000/svg">
<g clip-path="url(#clip0_1_167)">
<g clip-path="url(#clip1_1_167)">
<g clip-path="url(#clip2_1_167)">
<path d="M28.582 11.9909C28.589 12.1379 28.592 12.2879 28.592 12.4389C28.592 16.9999 25.119 22.2589 18.768 22.2589C16.8912 22.2624 15.0533 21.7242 13.475 20.7089C14.3791 20.8187 15.296 20.7491 16.1732 20.5041C17.0504 20.259 17.8706 19.8433 18.587 19.2809C17.8665 19.2667 17.1684 19.0278 16.5903 18.5975C16.0123 18.1672 15.5832 17.567 15.363 16.8809C15.8799 16.9815 16.4131 16.9613 16.921 16.8219C16.1396 16.6644 15.4367 16.2415 14.9317 15.6249C14.4266 15.0083 14.1504 14.2359 14.15 13.4389C14.15 13.4239 14.15 13.4089 14.154 13.3949C14.616 13.6549 15.151 13.8079 15.717 13.8249C14.9864 13.3366 14.4691 12.5885 14.2704 11.7325C14.0716 10.8766 14.2063 9.97707 14.647 9.21685C15.5136 10.2833 16.5948 11.1556 17.8203 11.7772C19.0459 12.3988 20.3885 12.7557 21.761 12.8249C21.702 12.5667 21.6728 12.3026 21.674 12.0379C21.6736 11.3455 21.8815 10.6691 22.2705 10.0964C22.6595 9.52375 23.2118 9.08128 23.8555 8.82649C24.4992 8.57169 25.2047 8.51634 25.8803 8.66763C26.5559 8.81892 27.1704 9.16985 27.644 9.67485C28.4186 9.5246 29.1613 9.24106 29.839 8.83685C29.5812 9.6376 29.041 10.3172 28.319 10.7489C29.0035 10.6688 29.6721 10.4857 30.302 10.2059C29.8392 10.8983 29.2568 11.5027 28.582 11.9909M21.888 0.422852C13.62 0.422852 6.88995 7.15285 6.88995 15.4219C6.88995 23.6929 13.62 30.4229 21.888 30.4229C30.16 30.4229 36.89 23.6929 36.89 15.4219C36.89 7.15185 30.16 0.422852 21.888 0.422852Z" fill="#212B36"/>
<mask id="mask0_1_167" style="mask-type:luminance" maskUnits="userSpaceOnUse" x="6" y="0" width="31" height="31">
<path d="M28.582 11.9909C28.589 12.1379 28.592 12.2879 28.592 12.4389C28.592 16.9999 25.119 22.2589 18.768 22.2589C16.8912 22.2624 15.0533 21.7242 13.475 20.7089C14.3791 20.8187 15.296 20.7491 16.1732 20.5041C17.0504 20.259 17.8706 19.8433 18.587 19.2809C17.8665 19.2667 17.1684 19.0278 16.5903 18.5975C16.0123 18.1672 15.5832 17.567 15.363 16.8809C15.8799 16.9815 16.4131 16.9613 16.921 16.8219C16.1396 16.6644 15.4367 16.2415 14.9317 15.6249C14.4266 15.0083 14.1504 14.2359 14.15 13.4389C14.15 13.4239 14.15 13.4089 14.154 13.3949C14.616 13.6549 15.151 13.8079 15.717 13.8249C14.9864 13.3366 14.4691 12.5885 14.2704 11.7325C14.0716 10.8766 14.2063 9.97707 14.647 9.21685C15.5136 10.2833 16.5948 11.1556 17.8203 11.7772C19.0459 12.3988 20.3885 12.7557 21.761 12.8249C21.702 12.5667 21.6728 12.3026 21.674 12.0379C21.6736 11.3455 21.8815 10.6691 22.2705 10.0964C22.6595 9.52375 23.2118 9.08128 23.8555 8.82649C24.4992 8.57169 25.2047 8.51634 25.8803 8.66763C26.5559 8.81892 27.1704 9.16985 27.644 9.67485C28.4186 9.5246 29.1613 9.24106 29.839 8.83685C29.5812 9.6376 29.041 10.3172 28.319 10.7489C29.0035 10.6688 29.6721 10.4857 30.302 10.2059C29.8392 10.8983 29.2568 11.5027 28.582 11.9909M21.888 0.422852C13.62 0.422852 6.88995 7.15285 6.88995 15.4219C6.88995 23.6929 13.62 30.4229 21.888 30.4229C30.16 30.4229 36.89 23.6929 36.89 15.4219C36.89 7.15185 30.16 0.422852 21.888 0.422852Z" fill="white"/>
</mask>
<g mask="url(#mask0_1_167)">
<path d="M32.89 0.422852H10.89C8.68081 0.422852 6.88995 2.21371 6.88995 4.42285V26.4229C6.88995 28.632 8.68081 30.4229 10.89 30.4229H32.89C35.0991 30.4229 36.89 28.632 36.89 26.4229V4.42285C36.89 2.21371 35.0991 0.422852 32.89 0.422852Z" fill="#007AB3"/>
</g>
</g>
</g>
</g>
<defs>
<clipPath id="clip0_1_167">
<rect width="30" height="30" fill="white" transform="translate(6.88995 0.422852)"/>
</clipPath>
<clipPath id="clip1_1_167">
<rect width="30" height="30" fill="white" transform="translate(6.88995 0.422852)"/>
</clipPath>
<clipPath id="clip2_1_167">
<rect width="30" height="30" fill="white" transform="translate(6.88995 0.422852)"/>
</clipPath>
</defs>
</svg>
