<svg width="43" height="31" viewBox="0 0 43 31" fill="none" xmlns="http://www.w3.org/2000/svg">
<g clip-path="url(#clip0_1_152)">
<g clip-path="url(#clip1_1_152)">
<g clip-path="url(#clip2_1_152)">
<path d="M25.02 15.9499H22.581V24.6499H18.964V15.9499H17.244V12.8759H18.964V10.8869C18.964 9.46685 19.639 7.23785 22.613 7.23785L25.292 7.24985V10.2329H23.348C23.028 10.2329 22.581 10.3929 22.581 11.0709V12.8799H25.336L25.02 15.9499ZM21.288 0.422852C13.02 0.422852 6.28998 7.15285 6.28998 15.4219C6.28998 23.6929 13.02 30.4229 21.288 30.4229C29.56 30.4229 36.29 23.6929 36.29 15.4219C36.29 7.15285 29.56 0.422852 21.288 0.422852Z" fill="#212B36"/>
<mask id="mask0_1_152" style="mask-type:luminance" maskUnits="userSpaceOnUse" x="6" y="0" width="31" height="31">
<path d="M25.02 15.9499H22.581V24.6499H18.964V15.9499H17.244V12.8759H18.964V10.8869C18.964 9.46685 19.639 7.23785 22.613 7.23785L25.292 7.24985V10.2329H23.348C23.028 10.2329 22.581 10.3929 22.581 11.0709V12.8799H25.336L25.02 15.9499ZM21.288 0.422852C13.02 0.422852 6.28998 7.15285 6.28998 15.4219C6.28998 23.6929 13.02 30.4229 21.288 30.4229C29.56 30.4229 36.29 23.6929 36.29 15.4219C36.29 7.15285 29.56 0.422852 21.288 0.422852Z" fill="white"/>
</mask>
<g mask="url(#mask0_1_152)">
<path d="M32.29 0.422852H10.29C8.08084 0.422852 6.28998 2.21371 6.28998 4.42285V26.4229C6.28998 28.632 8.08084 30.4229 10.29 30.4229H32.29C34.4991 30.4229 36.29 28.632 36.29 26.4229V4.42285C36.29 2.21371 34.4991 0.422852 32.29 0.422852Z" fill="#007AB3"/>
</g>
</g>
</g>
</g>
<defs>
<clipPath id="clip0_1_152">
<rect width="30" height="30" fill="white" transform="translate(6.28998 0.422852)"/>
</clipPath>
<clipPath id="clip1_1_152">
<rect width="30" height="30" fill="white" transform="translate(6.28998 0.422852)"/>
</clipPath>
<clipPath id="clip2_1_152">
<rect width="30" height="30" fill="white" transform="translate(6.28998 0.422852)"/>
</clipPath>
</defs>
</svg>
