<svg width="65" height="49" viewBox="0 0 65 49" fill="none" xmlns="http://www.w3.org/2000/svg">
<g clip-path="url(#clip0_1_56)">
<path d="M31.0625 13.0229C25.5138 13.0229 21 17.5366 21 23.0854C21 28.6341 25.5138 33.1479 31.0625 33.1479C32.7587 33.1479 34.4262 32.7454 35.835 31.9691C35.9478 32.1049 36.073 32.23 36.2087 32.3429L39.0837 35.2179C39.3492 35.5166 39.6729 35.7579 40.035 35.927C40.3971 36.096 40.79 36.1893 41.1894 36.2011C41.5889 36.2128 41.9865 36.1428 42.358 35.9953C42.7294 35.8479 43.0667 35.626 43.3493 35.3434C43.6319 35.0608 43.8537 34.7235 44.0012 34.3521C44.1487 33.9807 44.2187 33.583 44.207 33.1835C44.1952 32.7841 44.1019 32.3913 43.9328 32.0292C43.7638 31.6671 43.5225 31.3433 43.2238 31.0779L40.3488 28.2029C40.2087 28.0628 40.0546 27.9375 39.8888 27.8291C40.665 26.4204 41.1538 24.7816 41.1538 23.0566C41.1538 17.5079 36.64 12.9941 31.0912 12.9941L31.0625 13.0229ZM31.0625 15.8979C35.0587 15.8979 38.25 19.0891 38.25 23.0854C38.25 24.9829 37.56 26.7366 36.3525 28.0304L36.2662 28.1166C36.1305 28.2295 36.0053 28.3546 35.8925 28.4904C34.6275 29.6404 32.9025 30.3016 31.0338 30.3016C27.0375 30.3016 23.8463 27.1104 23.8463 23.1141C23.8463 19.1179 27.0375 15.9266 31.0338 15.9266L31.0625 15.8979Z" fill="#00B4F0"/>
</g>
<defs>
<clipPath id="clip0_1_56">
<rect width="23" height="23" fill="white" transform="translate(21 13.0229)"/>
</clipPath>
</defs>
</svg>
